<svg width="16" height="16" viewBox="0 0 16 16" fill="none" xmlns="http://www.w3.org/2000/svg">
<g clip-path="url(#clip0_0_1)">
<path d="M13.6348 5.28693L13.0957 15.3391C13.0783 15.7043 12.7652 16 12.4 16H3.6C3.23479 16 2.92174 15.7043 2.90435 15.3391L2.36522 5.28693C2.34783 4.90432 2.64348 4.57389 3.02609 4.5565C3.4087 4.53911 3.73914 4.83476 3.75653 5.21737L4.26087 14.6087H11.7565L12.2609 5.21737C12.2783 4.83476 12.6087 4.53911 12.9913 4.5565C13.3565 4.57389 13.6522 4.90432 13.6348 5.28693ZM15.4783 2.9565C15.4783 3.33911 15.1652 3.65215 14.7826 3.65215H1.2174C0.834787 3.65215 0.521744 3.33911 0.521744 2.9565C0.521744 2.57389 0.834787 2.26085 1.2174 2.26085H5.04348V0.695628C5.04348 0.365194 5.26957 0.173889 5.6 0.173889H10.4C10.7304 0.173889 10.9565 0.365194 10.9565 0.695628V2.26085H14.7826C15.1652 2.26085 15.4783 2.57389 15.4783 2.9565ZM6.26087 2.26085H9.73914V1.39128H6.26087V2.26085ZM6.55653 13.5652C6.90435 13.5652 7.16522 13.2348 7.16522 12.9043L6.99131 5.39128C6.99131 5.06085 6.71305 4.78258 6.36522 4.78258C6.03479 4.78258 5.75653 5.06085 5.77392 5.40867L5.94783 12.9391C5.94783 13.2695 6.22609 13.5652 6.55653 13.5652ZM9.42609 13.5652C9.75653 13.5652 10.0348 13.2869 10.0348 12.9565L10.2087 5.44345C10.2087 5.11302 9.94783 4.81737 9.6174 4.81737C9.26957 4.81737 9.0087 5.07824 8.99131 5.40867L8.8174 12.9217C8.8 13.2695 9.07827 13.5652 9.42609 13.5652C9.4087 13.5652 9.4087 13.5652 9.42609 13.5652Z" fill="white"/>
</g>
<defs>
<clipPath id="clip0_0_1">
<rect width="16" height="16" fill="white"/>
</clipPath>
</defs>
</svg>
