<svg width="24" height="24" viewBox="0 0 24 24" fill="none" xmlns="http://www.w3.org/2000/svg">
<g clip-path="url(#clip0_18_5)">
<path d="M20.4522 7.93043L19.6435 23.0087C19.6174 23.5565 19.1478 24 18.6 24H5.40001C4.85219 24 4.38262 23.5565 4.35654 23.0087L3.54784 7.93043C3.52175 7.35652 3.96523 6.86086 4.53914 6.83478C5.11306 6.80869 5.60871 7.25217 5.6348 7.82608L6.39132 21.913H17.6348L18.3913 7.82608C18.4174 7.25217 18.9131 6.80869 19.487 6.83478C20.0348 6.86086 20.4783 7.35652 20.4522 7.93043ZM23.2174 4.43478C23.2174 5.00869 22.7478 5.47826 22.1739 5.47826H1.8261C1.25219 5.47826 0.782623 5.00869 0.782623 4.43478C0.782623 3.86086 1.25219 3.3913 1.8261 3.3913H7.56523V1.04347C7.56523 0.547821 7.90436 0.260864 8.40001 0.260864H15.6C16.0957 0.260864 16.4348 0.547821 16.4348 1.04347V3.3913H22.1739C22.7478 3.3913 23.2174 3.86086 23.2174 4.43478ZM9.39132 3.3913H14.6087V2.08695H9.39132V3.3913ZM9.8348 20.3478C10.3565 20.3478 10.7478 19.8522 10.7478 19.3565L10.487 8.08695C10.487 7.5913 10.0696 7.17391 9.54784 7.17391C9.05219 7.17391 8.6348 7.5913 8.66088 8.11304L8.92175 19.4087C8.92175 19.9043 9.33915 20.3478 9.8348 20.3478ZM14.1391 20.3478C14.6348 20.3478 15.0522 19.9304 15.0522 19.4348L15.3131 8.16521C15.3131 7.66956 14.9218 7.22608 14.4261 7.22608C13.9044 7.22608 13.5131 7.61739 13.487 8.11304L13.2261 19.3826C13.2 19.9043 13.6174 20.3478 14.1391 20.3478C14.1131 20.3478 14.1131 20.3478 14.1391 20.3478Z" fill="white"/>
</g>
<defs>
<clipPath id="clip0_18_5">
<rect width="24" height="24" fill="white"/>
</clipPath>
</defs>
</svg>
