<svg width="24" height="24" viewBox="0 0 24 24" fill="none" xmlns="http://www.w3.org/2000/svg">
<g clip-path="url(#clip0_18_2)">
<path d="M3.5 24H18.5C19.4297 23.9974 20.3204 23.626 20.9765 22.9674C21.6327 22.3087 22.0008 21.4167 22 20.487V12.95C22 12.6848 21.8946 12.4304 21.7071 12.2429C21.5196 12.0554 21.2652 11.95 21 11.95C20.7348 11.95 20.4804 12.0554 20.2929 12.2429C20.1054 12.4304 20 12.6848 20 12.95V20.487C20.0013 20.8864 19.8441 21.2701 19.5629 21.5537C19.2817 21.8374 18.8994 21.9979 18.5 22H3.5C3.10057 21.9979 2.7183 21.8374 2.43708 21.5537C2.15587 21.2701 1.99867 20.8864 2 20.487V5.513C1.99867 5.11357 2.15587 4.72993 2.43708 4.44627C2.7183 4.16262 3.10057 4.00212 3.5 4H11C11.2652 4 11.5196 3.89464 11.7071 3.70711C11.8946 3.51957 12 3.26522 12 3C12 2.73478 11.8946 2.48043 11.7071 2.29289C11.5196 2.10536 11.2652 2 11 2H3.5C2.57031 2.00265 1.67964 2.37403 1.02346 3.03265C0.367281 3.69126 -0.000797091 4.5833 1.29611e-06 5.513V20.487C-0.000797091 21.4167 0.367281 22.3087 1.02346 22.9674C1.67964 23.626 2.57031 23.9974 3.5 24Z" fill="white"/>
<path d="M7.81192 10.4655L7.02292 14.0795C6.98721 14.2434 6.99331 14.4137 7.04067 14.5746C7.08803 14.7356 7.17512 14.882 7.29392 15.0005C7.41436 15.116 7.56086 15.2007 7.72101 15.2475C7.88116 15.2944 8.05024 15.3019 8.21392 15.2695L11.8199 14.4785C12.0072 14.4374 12.1786 14.3433 12.3139 14.2075L21.4279 5.09348C21.7065 4.8149 21.9276 4.48416 22.0784 4.12015C22.2292 3.75614 22.3068 3.36599 22.3068 2.97198C22.3068 2.57797 22.2292 2.18782 22.0784 1.82381C21.9276 1.4598 21.7065 1.12906 21.4279 0.850482C20.8567 0.304618 20.097 0 19.3069 0C18.5168 0 17.7571 0.304618 17.1859 0.850482L8.08592 9.97348C7.94934 10.1078 7.85423 10.2786 7.81192 10.4655ZM18.5999 2.26548C18.7902 2.08322 19.0435 1.98148 19.3069 1.98148C19.5704 1.98148 19.8237 2.08322 20.0139 2.26548C20.1989 2.45411 20.3025 2.70778 20.3025 2.97198C20.3025 3.23619 20.1989 3.48985 20.0139 3.67848L19.3069 4.38548L17.8929 2.97148L18.5999 2.26548ZM9.69992 11.1795L16.4739 4.38848L17.8739 5.79548L11.0969 12.5885L9.30192 12.9825L9.69992 11.1795Z" fill="white"/>
</g>
<defs>
<clipPath id="clip0_18_2">
<rect width="24" height="24" fill="white"/>
</clipPath>
</defs>
</svg>
