<svg width="16" height="16" viewBox="0 0 16 16" fill="none" xmlns="http://www.w3.org/2000/svg">
<g clip-path="url(#clip0_0_1)">
<path d="M2.33333 16H12.3333C12.9531 15.9982 13.5469 15.7507 13.9844 15.3116C14.4218 14.8725 14.6672 14.2778 14.6667 13.658V8.63334C14.6667 8.45653 14.5964 8.28696 14.4714 8.16194C14.3464 8.03691 14.1768 7.96668 14 7.96668C13.8232 7.96668 13.6536 8.03691 13.5286 8.16194C13.4036 8.28696 13.3333 8.45653 13.3333 8.63334V13.658C13.3342 13.9243 13.2294 14.1801 13.0419 14.3692C12.8545 14.5583 12.5996 14.6653 12.3333 14.6667H2.33333C2.06705 14.6653 1.8122 14.5583 1.62472 14.3692C1.43724 14.1801 1.33245 13.9243 1.33333 13.658V3.67534C1.33245 3.40906 1.43724 3.1533 1.62472 2.96419C1.8122 2.77509 2.06705 2.66809 2.33333 2.66668H7.33333C7.51015 2.66668 7.67971 2.59644 7.80474 2.47141C7.92976 2.34639 8 2.17682 8 2.00001C8 1.8232 7.92976 1.65363 7.80474 1.52861C7.67971 1.40358 7.51015 1.33334 7.33333 1.33334H2.33333C1.71354 1.33511 1.11976 1.5827 0.682306 2.02177C0.244854 2.46085 -0.000531394 3.05554 8.64072e-07 3.67534V13.658C-0.000531394 14.2778 0.244854 14.8725 0.682306 15.3116C1.11976 15.7507 1.71354 15.9982 2.33333 16Z" fill="white"/>
<path d="M6.30333 7.02933L5.77733 9.43866C5.75353 9.54794 5.75759 9.66146 5.78917 9.76876C5.82074 9.87606 5.8788 9.97369 5.958 10.0527C6.03829 10.1296 6.13596 10.1861 6.24273 10.2174C6.3495 10.2486 6.46221 10.2536 6.57133 10.232L8.97533 9.70466C9.10016 9.67725 9.21448 9.61454 9.30467 9.52399L15.3807 3.44799C15.5664 3.26227 15.7138 3.04178 15.8143 2.7991C15.9148 2.55643 15.9666 2.29633 15.9666 2.03366C15.9666 1.77099 15.9148 1.51089 15.8143 1.26821C15.7138 1.02554 15.5664 0.805047 15.3807 0.619326C14.9999 0.255417 14.4934 0.0523376 13.9667 0.0523376C13.4399 0.0523376 12.9335 0.255417 12.5527 0.619326L6.486 6.70133C6.39495 6.7909 6.33154 6.90475 6.30333 7.02933ZM13.4953 1.56266C13.6222 1.44115 13.791 1.37332 13.9667 1.37332C14.1423 1.37332 14.3112 1.44115 14.438 1.56266C14.5613 1.68841 14.6304 1.85752 14.6304 2.03366C14.6304 2.2098 14.5613 2.37891 14.438 2.50466L13.9667 2.97599L13.024 2.03333L13.4953 1.56266ZM7.562 7.50533L12.078 2.97799L13.0113 3.91599L8.49333 8.44466L7.29667 8.70733L7.562 7.50533Z" fill="white"/>
</g>
<defs>
<clipPath id="clip0_0_1">
<rect width="16" height="16" fill="white"/>
</clipPath>
</defs>
</svg>
