<svg width="12" height="8" viewBox="0 0 12 8" fill="none" xmlns="http://www.w3.org/2000/svg">
<path d="M6.5265 7.73942C6.534 7.72982 6.537 7.71702 6.5445 7.70742L11.7806 1.53604C12.0731 1.18883 12.0731 0.625618 11.7806 0.278408C11.7776 0.275208 11.7746 0.273608 11.7716 0.272008C11.7066 0.187934 11.6251 0.120033 11.5328 0.0730505C11.4406 0.0260679 11.3399 0.00113714 11.2377 0H0.763898C0.659823 0.00179399 0.557387 0.0279444 0.463826 0.0766044C0.370265 0.125264 0.287861 0.195247 0.222435 0.281608L0.219435 0.278408C0.0778902 0.45311 0 0.676313 0 0.907226C0 1.13814 0.0778902 1.36134 0.219435 1.53604L5.46757 7.73942C5.53291 7.82112 5.61408 7.88673 5.70549 7.93172C5.7969 7.9767 5.89637 8 5.99704 8C6.09771 8 6.19718 7.9767 6.28858 7.93172C6.37999 7.88673 6.46117 7.82112 6.5265 7.73942Z" fill="#8D8D8D"/>
</svg>
