<svg width="12" height="8" viewBox="0 0 12 8" fill="none" xmlns="http://www.w3.org/2000/svg">
<path d="M5.4746 0.260304C5.4671 0.269904 5.4641 0.282704 5.4566 0.292304L0.22046 6.46368C-0.0720195 6.81089 -0.0720195 7.37411 0.22046 7.72132C0.22346 7.72452 0.226459 7.72612 0.229459 7.72772C0.294533 7.81179 0.376032 7.87969 0.468261 7.92667C0.56049 7.97366 0.661223 7.99859 0.763422 7.99973L11.2372 7.99973C11.3413 7.99793 11.4437 7.97178 11.5373 7.92312C11.6308 7.87446 11.7132 7.80448 11.7787 7.71812L11.7817 7.72132C11.9232 7.54662 12.0011 7.32341 12.0011 7.0925C12.0011 6.86159 11.9232 6.63838 11.7817 6.46368L6.53353 0.260304C6.46819 0.178604 6.38702 0.112998 6.29561 0.0680103C6.2042 0.0230227 6.10473 -0.000274771 6.00406 -0.000274771C5.90339 -0.000274771 5.80393 0.0230227 5.71252 0.0680103C5.62111 0.112998 5.53993 0.178604 5.4746 0.260304Z" fill="#8D8D8D"/>
</svg>
